<?xml version="1.0" encoding="UTF-8" standalone="no"?>
<svg
   xmlns:dc="http://purl.org/dc/elements/1.1/"
   xmlns:cc="http://creativecommons.org/ns#"
   xmlns:rdf="http://www.w3.org/1999/02/22-rdf-syntax-ns#"
   xmlns:svg="http://www.w3.org/2000/svg"
   xmlns="http://www.w3.org/2000/svg"
   xmlns:sodipodi="http://sodipodi.sourceforge.net/DTD/sodipodi-0.dtd"
   xmlns:inkscape="http://www.inkscape.org/namespaces/inkscape"
   width="105.11617mm"
   height="32.709278mm"
   viewBox="0 0 105.11616 32.709278"
   version="1.1"
   id="svg8"
   inkscape:version="1.0.2 (e86c8708, 2021-01-15)"
   sodipodi:docname="logo_subtiwiki.svg">
  <defs
     id="defs2">
    <rect
       x="-22.302395"
       y="-16.219923"
       width="16.38888"
       height="47.983936"
       id="rect94" />
    <rect
       x="99.515984"
       y="-2.872278"
       width="32.101929"
       height="53.559536"
       id="rect88" />
    <rect
       x="-29.060696"
       y="-17.064711"
       width="30.919228"
       height="64.879692"
       id="rect82" />
    <rect
       x="9.8155031"
       y="-21.913681"
       width="117.97887"
       height="38.532349"
       id="rect74" />
    <rect
       x="74.596123"
       y="97.055168"
       width="27.2717"
       height="14.437959"
       id="rect70" />
    <rect
       x="20.539419"
       y="21.719847"
       width="120.87566"
       height="44.147945"
       id="rect26" />
    <rect
       x="6.1363506"
       y="6.2697492"
       width="59.318066"
       height="70.711662"
       id="rect228-0" />
    <rect
       x="-29.060696"
       y="-17.064711"
       width="30.919228"
       height="64.879692"
       id="rect82-8" />
  </defs>
  <sodipodi:namedview
     id="base"
     pagecolor="#ffffff"
     bordercolor="#666666"
     borderopacity="1.0"
     inkscape:pageopacity="0.0"
     inkscape:pageshadow="2"
     inkscape:zoom="1.3705739"
     inkscape:cx="119.18643"
     inkscape:cy="173.22352"
     inkscape:document-units="mm"
     inkscape:current-layer="layer1"
     inkscape:document-rotation="0"
     showgrid="false"
     showguides="true"
     inkscape:window-width="1280"
     inkscape:window-height="772"
     inkscape:window-x="0"
     inkscape:window-y="28"
     inkscape:window-maximized="0"
     fit-margin-top="1"
     fit-margin-left="1"
     fit-margin-right="1"
     fit-margin-bottom="1" />
  <metadata
     id="metadata5">
    <rdf:RDF>
      <cc:Work
         rdf:about="">
        <dc:format>image/svg+xml</dc:format>
        <dc:type
           rdf:resource="http://purl.org/dc/dcmitype/StillImage" />
        <dc:title></dc:title>
      </cc:Work>
    </rdf:RDF>
  </metadata>
  <g
     inkscape:label="Layer 1"
     inkscape:groupmode="layer"
     id="layer1"
     transform="translate(1.9999998,1.9999997)"
     style="display:inline">
    <g
       id="text24"
       style="font-style:normal;font-weight:normal;font-size:10.5833px;line-height:1.25;font-family:sans-serif;white-space:pre;shape-inside:url(#rect26);fill:#000000;fill-opacity:1;stroke:none" />
    <g
       id="text68"
       style="font-style:normal;font-weight:normal;font-size:10.5833px;line-height:1.25;font-family:sans-serif;white-space:pre;shape-inside:url(#rect70);fill:#000000;fill-opacity:1;stroke:none" />
    <g
       transform="matrix(1.0321072,0,0,0.98692818,90.623986,-15.571741)"
       id="text226-0"
       style="font-style:normal;font-variant:normal;font-weight:300;font-stretch:normal;font-size:10.5833px;line-height:1.25;font-family:Calibri;-inkscape-font-specification:'Calibri Light';white-space:pre;shape-inside:url(#rect228-0);fill:#000000;fill-opacity:1;stroke:none" />
    <g
       aria-label="SubtiWiki"
       transform="matrix(0.99999681,0,0,1,-3.8362517,22.390292)"
       id="text72"
       style="font-style:normal;font-variant:normal;font-weight:bold;font-stretch:normal;font-size:17.2861px;line-height:1.25;font-family:Cambria;-inkscape-font-specification:'Cambria Bold';white-space:pre;shape-inside:url(#rect74);fill:#1976d2;fill-opacity:1" />
    <g
       id="text92"
       style="font-size:21.1667px;line-height:1.25;font-family:Cambria;-inkscape-font-specification:Cambria;white-space:pre;shape-inside:url(#rect94)" />
    <g
       aria-label="}"
       transform="translate(122.42782,10.825653)"
       id="text80-4"
       style="font-style:normal;font-variant:normal;font-weight:300;font-stretch:normal;font-size:35.27779999999999916px;line-height:1.25;font-family:Calibri;-inkscape-font-specification:'Calibri Light';white-space:pre;shape-inside:url(#rect82-8);fill:#1976d2;fill-opacity:1">
      <path
         d="M -20.311652,4.2786168 V 3.1497271 C -22.146098,2.8675047 -22.957487,2.1619487 -22.957487,0.71555884 V -7.0455575 c 0,-2.9986135 -1.234723,-4.4097255 -3.845281,-4.4097255 -0.176389,0 -0.635,0 -1.023056,0.03528 v 1.12889 c 1.905001,0.3527778 2.681113,1.0936116 2.681113,2.5047237 v 7.79639411 c 0,2.04611249 0.423334,2.85750189 1.975557,3.70416919 -1.552223,0.8466672 -1.975557,1.6580566 -1.975557,3.7041691 v 7.7963939 c 0,1.411112 -0.776112,2.151946 -2.681113,2.504724 v 1.12889 l 0.881945,0.03528 c 2.786947,0 3.986392,-1.340557 3.986392,-4.409726 V 6.7127851 c 0,-1.4463899 0.811389,-2.1519459 2.645835,-2.4341683 z"
         style="font-style:normal;font-variant:normal;font-weight:normal;font-stretch:normal;font-size:35.27779999999999916px;font-family:'TeX Gyre Bonum';-inkscape-font-specification:'TeX Gyre Bonum';fill:#1976d2;fill-opacity:1"
         id="path387" />
    </g>
    <path
       id="rect76"
       style="fill:#33b5e5;fill-opacity:1;stroke-width:0.204971"
       d="m 7,20 h 87.115997 v 2.5 H 7 Z" />
    <path
       d="m 18.616223,12.299922 c 0,-2.644773 -2.834912,-3.180642 -3.284349,-3.301645 L 13.153832,8.427836 C 12.168527,8.168544 11.321511,7.978397 11.321511,7.148664 c 0,-0.777874 0.950733,-1.382888 2.195328,-1.382888 1.642175,0 3.025058,0.760589 3.647355,2.66206 h 1.31374 V 4.469319 h -1.227309 l -0.363007,0.743302 c -1.140879,-0.656872 -2.40276,-0.968022 -3.751072,-0.968022 -2.955913,0 -5.0475257,1.555749 -5.0475257,3.751084 0,2.592915 2.6101937,3.111498 3.3189217,3.284359 l 2.247186,0.535869 c 0.293863,0.06915 1.555744,0.259292 1.555744,1.452033 0,0.968021 -1.037163,1.676751 -2.489192,1.676751 -2.126183,0 -3.5954961,-1.123596 -4.3906545,-3.353503 l -1.3310258,0.224719 0.7605866,4.425242 h 1.1408784 l 0.3802928,-0.777875 c 1.0890215,0.674158 2.3509025,1.002594 3.7856435,1.002594 3.094203,0 5.548822,-1.849612 5.548822,-4.16595 z"
       style="font-style:italic;font-variant:normal;font-weight:bold;font-stretch:normal;font-size:17.28610000000000113px;line-height:1.25;font-family:'TeX Gyre Bonum';-inkscape-font-specification:'TeX Gyre Bonum Bold Italic';white-space:pre;shape-inside:url(#rect74);display:inline;fill:#1976d2;fill-opacity:1;stroke-width:0.999998"
       id="path391" />
    <path
       d="m 30.512803,15.134843 -0.674156,-1.002594 c -0.397579,0.31115 -0.553153,0.39758 -0.777873,0.39758 -0.449436,0 -0.587725,-0.328436 -0.587725,-0.760588 0,-0.276578 0.06914,-0.587728 0.121003,-0.898877 l 0.985304,-5.462408 h -2.731195 l -1.158165,6.378571 c -0.553153,0.449438 -1.123593,0.674158 -1.694032,0.674158 -0.605013,0 -1.071735,-0.363008 -1.071735,-0.829733 0,-0.155575 0,-0.190147 0.103716,-0.93345 l 0.950733,-5.289546 h -0.898875 c -1.313739,0.414866 -2.022467,0.535869 -3.318921,0.605013 l -0.25929,1.417461 h 0.207432 c 0.7433,0 0.985305,0.259291 0.985305,0.79516 0,0.138289 -0.01729,0.293864 -0.03457,0.466725 l -0.57044,3.094212 c -0.03457,0.172861 -0.06914,0.605013 -0.06914,0.777874 0,1.071738 1.054449,1.832327 2.541049,1.832327 1.037163,0 1.849606,-0.293864 3.163346,-1.140883 0.311149,0.760589 0.968019,1.140883 2.039753,1.140883 0.985305,0 2.039754,-0.484011 2.748482,-1.261885 z"
       style="font-style:italic;font-variant:normal;font-weight:bold;font-stretch:normal;font-size:17.28610000000000113px;line-height:1.25;font-family:'TeX Gyre Bonum';-inkscape-font-specification:'TeX Gyre Bonum Bold Italic';white-space:pre;shape-inside:url(#rect74);display:inline;fill:#1976d2;fill-opacity:1;stroke-width:0.999998"
       id="path393" />
    <path
       d="m 40.758025,10.968892 c 0,-2.143476 -1.503886,-3.716511 -3.560926,-3.716511 -1.08902,0 -2.022467,0.449438 -2.610192,1.261885 L 35.485781,3.587728 H 34.915342 C 33.981895,4.002594 32.789157,4.244599 31.648279,4.244599 L 31.388988,5.66206 h 0.190146 c 0.743301,0 0.985305,0.242005 0.985305,0.70873 0,0.155575 -0.03457,0.345722 -0.06914,0.553155 l -1.694032,9.317208 h 2.385474 l 0.103716,-0.605014 c 0.847016,0.501297 1.624889,0.760589 2.350902,0.760589 2.644765,0 5.11667,-2.627487 5.11667,-5.427836 z m -2.904056,-0.48401 c 0,1.953329 -1.123593,4.390669 -2.80034,4.390669 -0.397578,0 -0.847015,-0.207433 -1.123592,-0.501297 l -0.05186,-0.03457 c 0.449437,-3.422648 1.365598,-5.427836 2.765767,-5.427836 0.726014,0 1.210023,0.6223 1.210023,1.573036 z"
       style="font-style:italic;font-variant:normal;font-weight:bold;font-stretch:normal;font-size:17.28610000000000113px;line-height:1.25;font-family:'TeX Gyre Bonum';-inkscape-font-specification:'TeX Gyre Bonum Bold Italic';white-space:pre;shape-inside:url(#rect74);display:inline;fill:#1976d2;fill-opacity:1;stroke-width:0.999998"
       id="path395" />
    <path
       d="M 48.184274,14.858265 47.45826,13.700096 c -0.587725,0.432153 -1.469314,0.829733 -1.83232,0.829733 -0.345721,0 -0.570441,-0.207433 -0.570441,-0.535869 0,-0.08643 0.01729,-0.242005 0.03457,-0.380294 l 0.847017,-4.649961 h 2.40276 l 0.276576,-1.555749 h -2.385474 l 0.466723,-2.558343 h -1.555744 c -0.587725,1.763182 -1.365598,2.558343 -2.921342,2.973209 l -0.207432,1.140883 h 1.192737 l -0.847016,4.736391 c -0.103717,0.553156 -0.138289,0.795161 -0.138289,0.985308 0,1.089024 0.812445,1.711324 2.247186,1.711324 1.31374,0 2.731195,-0.587727 3.7165,-1.538463 z"
       style="font-style:italic;font-variant:normal;font-weight:bold;font-stretch:normal;font-size:17.28610000000000113px;line-height:1.25;font-family:'TeX Gyre Bonum';-inkscape-font-specification:'TeX Gyre Bonum Bold Italic';white-space:pre;shape-inside:url(#rect74);display:inline;fill:#1976d2;fill-opacity:1;stroke-width:0.999998"
       id="path397" />
    <path
       d="m 55.037377,15.117556 -0.726013,-0.968021 c -0.48401,0.242005 -0.881588,0.380294 -1.106307,0.380294 -0.363007,0 -0.674156,-0.276578 -0.674156,-0.605013 0,-0.207434 0.155575,-0.950736 0.172861,-1.054453 L 53.689066,7.407956 H 52.790192 C 51.476453,7.822822 50.767724,7.943825 49.471271,8.012969 L 49.21198,9.43043 h 0.207433 c 0.7433,0 0.985304,0.259291 0.985304,0.79516 0,0.138289 -0.01729,0.293864 -0.03457,0.466725 l -0.570439,3.14607 c -0.06914,0.39758 -0.103716,0.605014 -0.103716,0.847019 0,1.01988 0.898874,1.711324 2.247185,1.711324 1.002591,0 2.143471,-0.466725 3.094202,-1.279172 z M 54.24222,4.382888 c 0,-0.691444 -0.466723,-1.158169 -1.158165,-1.158169 -0.881588,0 -1.694033,0.812447 -1.694033,1.694038 0,0.674158 0.48401,1.175455 1.140879,1.175455 0.847017,0 1.711319,-0.864305 1.711319,-1.711324 z"
       style="font-style:italic;font-variant:normal;font-weight:bold;font-stretch:normal;font-size:17.28610000000000113px;line-height:1.25;font-family:'TeX Gyre Bonum';-inkscape-font-specification:'TeX Gyre Bonum Bold Italic';white-space:pre;shape-inside:url(#rect74);display:inline;fill:#1976d2;fill-opacity:1;stroke-width:0.999998"
       id="path399" />
    <path
       d="m 71.007256,5.886779 v -1.41746 h -5.2031 v 1.41746 l 0.224718,0.03457 c 0.795159,0 1.279167,0.242006 1.279167,0.829733 0,0.08643 0,0.172861 -0.01729,0.259291 l -1.676745,5.669841 -1.590317,-5.721699 c -0.05186,-0.190147 -0.06914,-0.345722 -0.06914,-0.466725 0,-0.363008 0.207432,-0.48401 0.777873,-0.553155 l 0.414864,-0.05186 V 4.469315 H 59.75404 v 1.41746 c 0.622297,0.01729 0.82973,0.207433 1.106307,0.950735 l 0.570439,1.573036 -1.348311,4.148664 -1.503886,-5.652555 c -0.05186,-0.190147 -0.08643,-0.363008 -0.08643,-0.501297 0,-0.31115 0.172861,-0.484011 0.726015,-0.518583 v -1.41746 h -5.2031 v 1.41746 c 0.812444,0.03457 1.123593,0.380294 1.452028,1.41746 l 2.834911,8.936914 h 2.2299 l 1.711319,-5.375977 1.607601,5.375977 h 2.264473 l 2.696623,-8.297328 c 0.535867,-1.64218 0.760586,-1.866899 1.91875,-2.022474 z"
       style="font-style:normal;font-variant:normal;font-weight:bold;font-stretch:normal;font-size:17.28610000000000113px;line-height:1.25;font-family:'TeX Gyre Bonum';-inkscape-font-specification:'TeX Gyre Bonum Bold';white-space:pre;shape-inside:url(#rect74);display:inline;fill:#1976d2;fill-opacity:1;stroke-width:0.999998"
       id="path401" />
    <path
       d="M 76.49233,16.241153 V 14.840979 L 75.956463,14.719976 C 75.299593,14.564401 75.195876,14.39154 75.195876,13.406233 V 7.563531 h -1.071734 l -3.042344,0.501297 v 1.400174 l 0.363007,0.03457 c 0.7433,0.06914 0.950732,0.363008 0.950732,1.41746 v 2.489199 c 0,0.985307 -0.103716,1.175454 -0.760585,1.313743 l -0.553154,0.121003 v 1.400174 z M 75.507025,4.711324 C 75.507025,3.795161 74.729154,3 73.847565,3 c -0.950732,0 -1.642174,0.691444 -1.642174,1.64218 0,0.916163 0.743299,1.659465 1.676746,1.659465 0.881589,0 1.624888,-0.726016 1.624888,-1.590321 z"
       style="font-style:normal;font-variant:normal;font-weight:bold;font-stretch:normal;font-size:17.28610000000000113px;line-height:1.25;font-family:'TeX Gyre Bonum';-inkscape-font-specification:'TeX Gyre Bonum Bold';white-space:pre;shape-inside:url(#rect74);display:inline;fill:#1976d2;fill-opacity:1;stroke-width:0.999998"
       id="path403" />
    <path
       d="m 88.028608,16.241153 v -1.400174 l -0.311149,-0.03457 C 87.129734,14.754549 86.697583,14.443401 86.351863,13.95939 L 84.00096,10.675029 85.522132,9.551432 c 0.518582,-0.380294 0.777872,-0.484011 1.417456,-0.570441 l 0.242004,-0.01729 V 7.563527 h -4.995667 v 1.400174 l 0.190146,0.01729 c 0.293863,0.01729 0.432152,0.103716 0.432152,0.242005 0,0.121003 -0.103717,0.31115 -0.328435,0.553156 l -1.123592,1.210027 V 3.726016 H 80.232602 C 79.299156,4.140883 78.05456,4.469319 77.293974,4.469319 v 1.400174 l 0.242005,0.03457 c 0.864302,0.121003 1.019876,0.345722 1.019876,1.400174 v 6.101994 c 0,0.985307 -0.103715,1.158168 -0.760585,1.313743 l -0.501296,0.121003 v 1.400174 h 5.099384 v -1.400174 l -0.242005,-0.05186 C 81.356196,14.616256 81.356196,13.821095 81.356196,13.406229 V 12.87036 l 0.639582,-0.570441 1.158166,1.797754 c 0.08643,0.138289 0.155574,0.276578 0.155574,0.414866 0,0.138289 -0.08643,0.242006 -0.363007,0.293864 l -0.190146,0.03457 v 1.400174 z"
       style="font-style:normal;font-variant:normal;font-weight:bold;font-stretch:normal;font-size:17.28610000000000113px;line-height:1.25;font-family:'TeX Gyre Bonum';-inkscape-font-specification:'TeX Gyre Bonum Bold';white-space:pre;shape-inside:url(#rect74);display:inline;fill:#1976d2;fill-opacity:1;stroke-width:0.999998"
       id="path405" />
    <path
       d="M 94.116,16.241153 V 14.840979 L 93.580133,14.719976 C 92.923263,14.564401 92.819546,14.39154 92.819546,13.406233 V 7.563531 h -1.071735 l -3.042344,0.501297 v 1.400174 l 0.363008,0.03457 c 0.7433,0.06914 0.950732,0.363008 0.950732,1.41746 v 2.489199 c 0,0.985307 -0.103716,1.175454 -0.760586,1.313743 l -0.553154,0.121003 v 1.400174 z M 93.130695,4.711324 C 93.130695,3.795161 92.352823,3 91.471235,3 c -0.950733,0 -1.642174,0.691444 -1.642174,1.64218 0,0.916163 0.743299,1.659465 1.676746,1.659465 0.881588,0 1.624888,-0.726016 1.624888,-1.590321 z"
       style="font-style:normal;font-variant:normal;font-weight:bold;font-stretch:normal;font-size:17.28610000000000113px;line-height:1.25;font-family:'TeX Gyre Bonum';-inkscape-font-specification:'TeX Gyre Bonum Bold';white-space:pre;shape-inside:url(#rect74);display:inline;fill:#1976d2;fill-opacity:1;stroke-width:0.999998"
       id="path407" />
    <g
       aria-label="{"
       transform="translate(26.825824,10.455283)"
       id="text80"
       style="font-style:normal;font-variant:normal;font-weight:300;font-stretch:normal;font-size:35.27779999999999916px;line-height:1.25;font-family:Calibri;-inkscape-font-specification:'Calibri Light';white-space:pre;shape-inside:url(#rect82);fill:#1976d2;fill-opacity:1">
      <path
         d="m -20.311652,18.848349 v -1.12889 c -1.905001,-0.352778 -2.681113,-1.093612 -2.681113,-2.504724 V 7.4183411 c 0,-2.0461125 -0.423334,-2.8575019 -1.975557,-3.7041691 1.552223,-0.8466673 1.975557,-1.6580567 1.975557,-3.70416919 V -7.7863913 c 0,-1.4111121 0.776112,-2.1519459 2.681113,-2.5047237 v -1.12889 l -0.881945,-0.03528 c -2.786946,0 -3.986392,1.340557 -3.986392,4.4097255 v 7.76111634 c 0,1.44638986 -0.811389,2.15194586 -2.645835,2.43416826 v 1.1288897 c 1.834446,0.2822224 2.645835,0.9877784 2.645835,2.4341683 v 7.7611159 c 0,3.033891 1.234723,4.409726 3.845281,4.409726 0.176389,0 0.635,0 1.023056,-0.03528 z"
         style="font-style:normal;font-variant:normal;font-weight:normal;font-stretch:normal;font-size:35.27779999999999916px;font-family:'TeX Gyre Bonum';-inkscape-font-specification:'TeX Gyre Bonum';fill:#1976d2;fill-opacity:1"
         id="path410" />
    </g>
    <path
       id="rect76-4"
       style="fill:#33b5e5;fill-opacity:1;stroke-width:0.204971"
       d="m 7,24 h 87.115997 v 2.5 H 7 Z" />
  </g>
</svg>
